<svg width="23" height="29" viewBox="0 0 23 29" fill="none" xmlns="http://www.w3.org/2000/svg">
<path d="M17.1663 7.41667C17.1663 8.91956 16.5693 10.3609 15.5066 11.4236C14.4439 12.4863 13.0026 13.0833 11.4997 13.0833C9.99678 13.0833 8.55544 12.4863 7.49274 11.4236C6.43003 10.3609 5.83301 8.91956 5.83301 7.41667C5.83301 5.91377 6.43003 4.47243 7.49274 3.40973C8.55544 2.34702 9.99678 1.75 11.4997 1.75C13.0026 1.75 14.4439 2.34702 15.5066 3.40973C16.5693 4.47243 17.1663 5.91377 17.1663 7.41667ZM11.4997 17.3333C8.86961 17.3333 6.34727 18.3781 4.48753 20.2379C2.6278 22.0976 1.58301 24.6199 1.58301 27.25H21.4163C21.4163 24.6199 20.3716 22.0976 18.5118 20.2379C16.6521 18.3781 14.1297 17.3333 11.4997 17.3333Z" stroke="#565353" stroke-width="2" stroke-linecap="round" stroke-linejoin="round"/>
</svg>
